<?xml version="1.0" standalone="no"?>
<svg viewBox="0 0 200 200" xmlns="http://www.w3.org/2000/svg">
  <path fill="#FF0066" d="M17.5,-22.6C31.6,-22,58.3,-35.6,67,-34.2C75.6,-32.7,66,-16.4,63,-1.8C60,12.9,63.4,25.7,61.3,38.4C59.2,51.1,51.5,63.5,40.4,59C29.2,54.5,14.6,33,-0.9,34.5C-16.4,36.1,-32.8,60.6,-41.9,64C-51,67.3,-52.7,49.4,-54.8,35.2C-56.9,21,-59.2,10.5,-51.5,4.4C-43.9,-1.7,-26.3,-3.3,-23.3,-15.9C-20.3,-28.6,-32,-52.2,-30.6,-60.1C-29.2,-68.1,-14.6,-60.4,-6.5,-49.2C1.6,-38,3.3,-23.3,17.5,-22.6Z" transform="translate(100 100)" />
</svg>
